<mxfile host="app.diagrams.net" agent="Mozilla/5.0 (Macintosh; Intel Mac OS X 10_15_7) AppleWebKit/537.36 (KHTML, like Gecko) Chrome/136.0.0.0 Safari/537.36" version="26.0.10">
  <diagram id="prtHgNgQTEPvFCAcTncT" name="Page-1">
    <mxGraphModel dx="730" dy="453" grid="1" gridSize="10" guides="1" tooltips="1" connect="1" arrows="1" fold="1" page="1" pageScale="1" pageWidth="827" pageHeight="1169" math="0" shadow="0">
      <root>
        <mxCell id="0" />
        <mxCell id="1" parent="0" />
        <mxCell id="dNxyNK7c78bLwvsdeMH5-19" value="EDST APP" style="swimlane;html=1;childLayout=stackLayout;resizeParent=1;resizeParentMax=0;horizontal=0;startSize=20;horizontalStack=0;fillColor=#d5e8d4;strokeColor=#82b366;" parent="1" vertex="1">
          <mxGeometry x="120" y="120" width="690" height="360" as="geometry" />
        </mxCell>
        <mxCell id="dNxyNK7c78bLwvsdeMH5-20" value="User" style="swimlane;html=1;startSize=20;horizontal=0;fillColor=#dae8fc;strokeColor=#6c8ebf;" parent="dNxyNK7c78bLwvsdeMH5-19" vertex="1">
          <mxGeometry x="20" width="670" height="120" as="geometry" />
        </mxCell>
        <mxCell id="KoYZmBN-ahXLAC_tSxox-5" value="" style="edgeStyle=orthogonalEdgeStyle;rounded=0;orthogonalLoop=1;jettySize=auto;html=1;" edge="1" parent="dNxyNK7c78bLwvsdeMH5-20" source="dNxyNK7c78bLwvsdeMH5-23" target="dNxyNK7c78bLwvsdeMH5-24">
          <mxGeometry relative="1" as="geometry" />
        </mxCell>
        <mxCell id="dNxyNK7c78bLwvsdeMH5-23" value="Start" style="ellipse;whiteSpace=wrap;html=1;" parent="dNxyNK7c78bLwvsdeMH5-20" vertex="1">
          <mxGeometry x="40" y="40" width="40" height="40" as="geometry" />
        </mxCell>
        <mxCell id="dNxyNK7c78bLwvsdeMH5-24" value="Select Environment &amp;amp; Login" style="rounded=0;whiteSpace=wrap;html=1;fontFamily=Helvetica;fontSize=12;fontColor=#000000;align=center;" parent="dNxyNK7c78bLwvsdeMH5-20" vertex="1">
          <mxGeometry x="120" y="30" width="80" height="60" as="geometry" />
        </mxCell>
        <mxCell id="KoYZmBN-ahXLAC_tSxox-18" style="edgeStyle=orthogonalEdgeStyle;rounded=0;orthogonalLoop=1;jettySize=auto;html=1;entryX=0;entryY=0.5;entryDx=0;entryDy=0;" edge="1" parent="dNxyNK7c78bLwvsdeMH5-20" source="KoYZmBN-ahXLAC_tSxox-1" target="KoYZmBN-ahXLAC_tSxox-16">
          <mxGeometry relative="1" as="geometry">
            <Array as="points">
              <mxPoint x="300" y="40" />
              <mxPoint x="300" y="40" />
            </Array>
          </mxGeometry>
        </mxCell>
        <mxCell id="KoYZmBN-ahXLAC_tSxox-19" value="No" style="edgeLabel;html=1;align=center;verticalAlign=middle;resizable=0;points=[];" vertex="1" connectable="0" parent="KoYZmBN-ahXLAC_tSxox-18">
          <mxGeometry x="-0.0806" relative="1" as="geometry">
            <mxPoint as="offset" />
          </mxGeometry>
        </mxCell>
        <mxCell id="KoYZmBN-ahXLAC_tSxox-25" style="edgeStyle=orthogonalEdgeStyle;rounded=0;orthogonalLoop=1;jettySize=auto;html=1;entryX=0;entryY=0.5;entryDx=0;entryDy=0;" edge="1" parent="dNxyNK7c78bLwvsdeMH5-20" source="KoYZmBN-ahXLAC_tSxox-1" target="KoYZmBN-ahXLAC_tSxox-24">
          <mxGeometry relative="1" as="geometry" />
        </mxCell>
        <mxCell id="KoYZmBN-ahXLAC_tSxox-1" value="&lt;div&gt;&lt;span style=&quot;font-size: 10px; background-color: transparent; color: light-dark(rgb(0, 0, 0), rgb(237, 237, 237));&quot;&gt;Is there an&amp;nbsp;&lt;/span&gt;&lt;/div&gt;&lt;div&gt;&lt;span style=&quot;font-size: 10px; background-color: transparent; color: light-dark(rgb(0, 0, 0), rgb(237, 237, 237));&quot;&gt;active Hub Session?&lt;/span&gt;&lt;/div&gt;" style="rhombus;whiteSpace=wrap;html=1;fontFamily=Helvetica;fontSize=12;fontColor=#000000;align=center;" vertex="1" parent="dNxyNK7c78bLwvsdeMH5-20">
          <mxGeometry x="229" y="22.5" width="89" height="75" as="geometry" />
        </mxCell>
        <mxCell id="KoYZmBN-ahXLAC_tSxox-20" style="edgeStyle=orthogonalEdgeStyle;rounded=0;orthogonalLoop=1;jettySize=auto;html=1;entryX=0.5;entryY=0;entryDx=0;entryDy=0;" edge="1" parent="dNxyNK7c78bLwvsdeMH5-20" source="KoYZmBN-ahXLAC_tSxox-16" target="KoYZmBN-ahXLAC_tSxox-1">
          <mxGeometry relative="1" as="geometry">
            <Array as="points">
              <mxPoint x="390" />
              <mxPoint x="273" />
            </Array>
          </mxGeometry>
        </mxCell>
        <mxCell id="KoYZmBN-ahXLAC_tSxox-16" value="&lt;font style=&quot;font-size: 10px;&quot;&gt;Wait for Session&lt;/font&gt;" style="rounded=0;whiteSpace=wrap;html=1;fontFamily=Helvetica;fontSize=12;fontColor=#000000;align=center;" vertex="1" parent="dNxyNK7c78bLwvsdeMH5-20">
          <mxGeometry x="350" y="30" width="80" height="20" as="geometry" />
        </mxCell>
        <mxCell id="KoYZmBN-ahXLAC_tSxox-33" style="edgeStyle=orthogonalEdgeStyle;rounded=0;orthogonalLoop=1;jettySize=auto;html=1;entryX=0.5;entryY=1;entryDx=0;entryDy=0;" edge="1" parent="dNxyNK7c78bLwvsdeMH5-20" source="KoYZmBN-ahXLAC_tSxox-24" target="KoYZmBN-ahXLAC_tSxox-32">
          <mxGeometry relative="1" as="geometry">
            <Array as="points">
              <mxPoint x="540" y="60" />
            </Array>
          </mxGeometry>
        </mxCell>
        <mxCell id="KoYZmBN-ahXLAC_tSxox-34" value="No" style="edgeLabel;html=1;align=center;verticalAlign=middle;resizable=0;points=[];" vertex="1" connectable="0" parent="KoYZmBN-ahXLAC_tSxox-33">
          <mxGeometry x="0.174" y="1" relative="1" as="geometry">
            <mxPoint as="offset" />
          </mxGeometry>
        </mxCell>
        <mxCell id="KoYZmBN-ahXLAC_tSxox-24" value="&lt;font style=&quot;font-size: 8px;&quot;&gt;Are we a Center&amp;nbsp;&lt;/font&gt;&lt;div&gt;&lt;font style=&quot;font-size: 8px;&quot;&gt;&amp;amp;&amp;amp; non-pseudo controller?&lt;/font&gt;&lt;/div&gt;" style="rhombus;whiteSpace=wrap;html=1;fontFamily=Helvetica;fontSize=12;fontColor=#000000;align=center;" vertex="1" parent="dNxyNK7c78bLwvsdeMH5-20">
          <mxGeometry x="430" y="15" width="91" height="90" as="geometry" />
        </mxCell>
        <mxCell id="KoYZmBN-ahXLAC_tSxox-31" value="Route to App" style="ellipse;whiteSpace=wrap;html=1;" vertex="1" parent="dNxyNK7c78bLwvsdeMH5-20">
          <mxGeometry x="590" y="20" width="60" height="60" as="geometry" />
        </mxCell>
        <mxCell id="KoYZmBN-ahXLAC_tSxox-32" value="&lt;font style=&quot;font-size: 10px;&quot;&gt;Error and Logout&lt;/font&gt;" style="rounded=0;whiteSpace=wrap;html=1;fontFamily=Helvetica;fontSize=12;fontColor=#000000;align=center;" vertex="1" parent="dNxyNK7c78bLwvsdeMH5-20">
          <mxGeometry x="500" y="10" width="80" height="20" as="geometry" />
        </mxCell>
        <mxCell id="dNxyNK7c78bLwvsdeMH5-21" value="vNAS Hub" style="swimlane;html=1;startSize=20;horizontal=0;fillColor=#fff2cc;strokeColor=#d6b656;" parent="dNxyNK7c78bLwvsdeMH5-19" vertex="1">
          <mxGeometry x="20" y="120" width="670" height="120" as="geometry" />
        </mxCell>
        <mxCell id="KoYZmBN-ahXLAC_tSxox-8" value="Process Auth Request" style="rounded=0;whiteSpace=wrap;html=1;fontFamily=Helvetica;fontSize=12;fontColor=#000000;align=center;" vertex="1" parent="dNxyNK7c78bLwvsdeMH5-21">
          <mxGeometry x="220" y="30" width="80" height="60" as="geometry" />
        </mxCell>
        <mxCell id="KoYZmBN-ahXLAC_tSxox-22" value="ConnectHub" style="rounded=0;whiteSpace=wrap;html=1;fontFamily=Helvetica;fontSize=12;fontColor=#000000;align=center;" vertex="1" parent="dNxyNK7c78bLwvsdeMH5-21">
          <mxGeometry x="430" y="30" width="80" height="60" as="geometry" />
        </mxCell>
        <mxCell id="dNxyNK7c78bLwvsdeMH5-22" value="VaTSIM OAuth" style="swimlane;html=1;startSize=20;horizontal=0;fillColor=#e1d5e7;strokeColor=#9673a6;" parent="dNxyNK7c78bLwvsdeMH5-19" vertex="1">
          <mxGeometry x="20" y="240" width="670" height="120" as="geometry" />
        </mxCell>
        <mxCell id="KoYZmBN-ahXLAC_tSxox-6" value="Process OAuth Request" style="rounded=0;whiteSpace=wrap;html=1;fontFamily=Helvetica;fontSize=12;fontColor=#000000;align=center;" vertex="1" parent="dNxyNK7c78bLwvsdeMH5-22">
          <mxGeometry x="120" y="30" width="80" height="60" as="geometry" />
        </mxCell>
        <mxCell id="KoYZmBN-ahXLAC_tSxox-7" style="edgeStyle=orthogonalEdgeStyle;rounded=0;orthogonalLoop=1;jettySize=auto;html=1;entryX=0.5;entryY=0;entryDx=0;entryDy=0;" edge="1" parent="dNxyNK7c78bLwvsdeMH5-19" source="dNxyNK7c78bLwvsdeMH5-24" target="KoYZmBN-ahXLAC_tSxox-6">
          <mxGeometry relative="1" as="geometry" />
        </mxCell>
        <mxCell id="KoYZmBN-ahXLAC_tSxox-10" value="APP ID&lt;div&gt;vNAS&amp;nbsp;&lt;/div&gt;&lt;div&gt;Callback URL&lt;/div&gt;" style="edgeLabel;html=1;align=center;verticalAlign=middle;resizable=0;points=[];labelBorderColor=default;" vertex="1" connectable="0" parent="KoYZmBN-ahXLAC_tSxox-7">
          <mxGeometry x="0.2121" relative="1" as="geometry">
            <mxPoint as="offset" />
          </mxGeometry>
        </mxCell>
        <mxCell id="KoYZmBN-ahXLAC_tSxox-9" style="edgeStyle=orthogonalEdgeStyle;rounded=0;orthogonalLoop=1;jettySize=auto;html=1;entryX=0.5;entryY=1;entryDx=0;entryDy=0;" edge="1" parent="dNxyNK7c78bLwvsdeMH5-19" source="KoYZmBN-ahXLAC_tSxox-6" target="KoYZmBN-ahXLAC_tSxox-8">
          <mxGeometry relative="1" as="geometry" />
        </mxCell>
        <mxCell id="KoYZmBN-ahXLAC_tSxox-11" value="VATSIM-level&lt;div&gt;Token&lt;/div&gt;" style="edgeLabel;html=1;align=center;verticalAlign=middle;resizable=0;points=[];labelBorderColor=default;" vertex="1" connectable="0" parent="KoYZmBN-ahXLAC_tSxox-9">
          <mxGeometry x="0.2091" relative="1" as="geometry">
            <mxPoint as="offset" />
          </mxGeometry>
        </mxCell>
        <mxCell id="KoYZmBN-ahXLAC_tSxox-12" style="edgeStyle=orthogonalEdgeStyle;rounded=0;orthogonalLoop=1;jettySize=auto;html=1;entryX=0.5;entryY=1;entryDx=0;entryDy=0;" edge="1" parent="dNxyNK7c78bLwvsdeMH5-19" source="KoYZmBN-ahXLAC_tSxox-8" target="KoYZmBN-ahXLAC_tSxox-1">
          <mxGeometry relative="1" as="geometry">
            <Array as="points">
              <mxPoint x="293" y="128" />
              <mxPoint x="293" y="128" />
            </Array>
          </mxGeometry>
        </mxCell>
        <mxCell id="KoYZmBN-ahXLAC_tSxox-13" value="vNAS Token" style="edgeLabel;html=1;align=center;verticalAlign=middle;resizable=0;points=[];labelBorderColor=default;" vertex="1" connectable="0" parent="KoYZmBN-ahXLAC_tSxox-12">
          <mxGeometry x="0.0527" relative="1" as="geometry">
            <mxPoint x="1" y="3" as="offset" />
          </mxGeometry>
        </mxCell>
        <mxCell id="KoYZmBN-ahXLAC_tSxox-37" style="edgeStyle=orthogonalEdgeStyle;rounded=0;orthogonalLoop=1;jettySize=auto;html=1;entryX=0.5;entryY=1;entryDx=0;entryDy=0;" edge="1" parent="dNxyNK7c78bLwvsdeMH5-19" source="KoYZmBN-ahXLAC_tSxox-22" target="KoYZmBN-ahXLAC_tSxox-31">
          <mxGeometry relative="1" as="geometry" />
        </mxCell>
        <mxCell id="KoYZmBN-ahXLAC_tSxox-38" value="" style="edgeStyle=orthogonalEdgeStyle;rounded=0;orthogonalLoop=1;jettySize=auto;html=1;" edge="1" parent="dNxyNK7c78bLwvsdeMH5-19" source="KoYZmBN-ahXLAC_tSxox-24" target="KoYZmBN-ahXLAC_tSxox-22">
          <mxGeometry relative="1" as="geometry">
            <Array as="points">
              <mxPoint x="490" y="120" />
              <mxPoint x="490" y="120" />
            </Array>
          </mxGeometry>
        </mxCell>
        <mxCell id="KoYZmBN-ahXLAC_tSxox-39" value="Yes!" style="edgeLabel;html=1;align=center;verticalAlign=middle;resizable=0;points=[];" vertex="1" connectable="0" parent="KoYZmBN-ahXLAC_tSxox-38">
          <mxGeometry x="0.0327" relative="1" as="geometry">
            <mxPoint as="offset" />
          </mxGeometry>
        </mxCell>
      </root>
    </mxGraphModel>
  </diagram>
</mxfile>
